<?xml version="1.0" encoding="UTF-8" standalone="no"?>
<svg width="120px" height="95px" viewBox="0 0 120 95" version="1.1" xmlns="http://www.w3.org/2000/svg" xmlns:xlink="http://www.w3.org/1999/xlink">
    <!-- Generator: Sketch 44.1 (41455) - http://www.bohemiancoding.com/sketch -->
    <title>Search Results Muted</title>
    <desc>Created with Sketch.</desc>
    <defs></defs>
    <g id="Desktop" stroke="none" stroke-width="1" fill="none" fill-rule="evenodd">
        <g id="NRP-Condensed_Spec_v1_Neptune_ds_1-Copy-2" transform="translate(-156.000000, -311.000000)">
            <g id="Group-3" transform="translate(156.000000, 311.000000)">
                <g id="Empty-Search-Results-(230x230)">
                    <g id="Search-Results-Muted-(230x230)">
                        <g id="Search-Results-Muted">
                            <path d="M40.8,29 C36.3,29 32.1,31.1 29.5,34.7 C27.7,37.1 26.8,40 26.8,43 L26.8,43.3 L27,44 L27.5,47.4 C29.4,52.9 34.6,57 40.8,57 C45.3,57 49.5,54.8 52.1,51.2 C53.5,49.3 54.4,47 54.7,44.6 L51,41 L51.8,34.4 C49.3,31.1 45.3,29 40.8,29 Z" id="Fill-1" fill-opacity="0.15" fill="#ACB9C2"></path>
                            <polygon id="Fill-3" fill-opacity="0.15" fill="#ACB9C2" points="80.1 69.7 87.1 69.7 87.1 66.7 76.1 65.7 49.1 66.7 48 71 79 71"></polygon>
                            <path d="M101.1,7 C97.8,7 95.1,9.7 95.1,13 C95.1,16.3 97.8,19 101.1,19 C104.4,19 107.1,16.3 107.1,13 C107.1,9.7 104.4,7 101.1,7 M101.1,10 C102.8,10 104.1,11.3 104.1,13 C104.1,14.7 102.8,16 101.1,16 C99.4,16 98.1,14.7 98.1,13 C98.1,11.3 99.4,10 101.1,10" id="Fill-5" fill-opacity="0.4" fill="#ACB9C2"></path>
                            <path d="M101,10 C102.657,10 104,11.343 104,13 C104,14.657 102.657,16 101,16 C99.343,16 98,14.657 98,13 C98,11.343 99.343,10 101,10" id="Fill-7" fill="#FFFFFF"></path>
                            <polygon id="Fill-9" fill-opacity="0.4" fill="#ACB9C2" points="47.1 39.4 45 37.3 41.1 41.2 37.1 37.3 35 39.4 38.9 43.3 35 47.3 37.1 49.4 41.1 45.5 45 49.4 47.1 47.3 43.2 43.3"></polygon>
                            <path d="M104.6,42 L103.1,42 L101.6,42.5 L101.6,42.2 C101.4,40.9 101.3,39.6 101.2,38.2 L104.2,37.9 C104.3,39.3 104.5,40.6 104.6,41.8 L104.6,42 Z M100.5,30.1 L103.5,30 C103.6,31.3 103.6,32.6 103.7,34 L100.7,34.1 C100.7,32.8 100.6,31.4 100.5,30.1 L100.5,30.1 Z M100.4,25.1 C100.4,23.7 100.4,22.6 100.5,21.8 L103.5,22.1 C103.4,22.8 103.4,23.8 103.4,25.1 L103.4,26 L100.4,26 L100.4,25.1 Z M105.9,3 L101.3,6.7 L101,7 C104.3,7 107,9.7 107,13 C107,16.3 104.3,19 101,19 C97.7,19 95,16.3 95,13 C95,12.4 95.1,11.9 95.2,11.4 L84.3,12.7 L85.3,17.7 L92.3,20.7 L88.3,29.7 C88.3,29.7 87.3,33.7 88.3,34.7 C89.3,35.7 91.3,42.7 91.3,42.7 L103.3,43.7 L102.5,46 L104.6,46.2 C104.5,47.6 104.2,49.1 103.6,50.4 L101.1,49.5 L99.8,53 L101.5,54.2 C100.6,55.4 99.6,56.4 98.5,57.4 L98.4,57.2 L98.3,57.6 L107.3,57.6 L111.3,52.6 L115.3,44.6 L117,40.1 L117,3 L105.9,3 Z" id="Fill-11" fill-opacity="0.15" fill="#ACB9C2"></path>
                            <path d="M82.8,60.8 L83.3,63.8 C84.7,63.6 86,63.3 87.3,62.9 L86.5,60 C85.3,60.3 84.1,60.5 82.8,60.8" id="Fill-13" fill-opacity="0.4" fill="#ACB9C2"></path>
                            <path d="M75,61.6 L75.1,64.6 C76.5,64.6 77.9,64.5 79.2,64.4 L78.9,61.4 C77.6,61.5 76.3,61.6 75,61.6" id="Fill-15" fill-opacity="0.4" fill="#ACB9C2"></path>
                            <path d="M66.9,64.1 C68.2,64.3 69.5,64.4 71,64.5 L71.2,61.5 C69.8,61.4 68.5,61.3 67.3,61.1 L66.9,64.1 Z" id="Fill-17" fill-opacity="0.4" fill="#ACB9C2"></path>
                            <path d="M58.8,61.9 C60.1,62.4 61.4,62.9 62.8,63.2 L63.5,60.3 C62.3,60 61.1,59.6 59.9,59.1 L58.8,61.9 Z" id="Fill-19" fill-opacity="0.4" fill="#ACB9C2"></path>
                            <path d="M90.2,58.8 L91.3,61.6 C92.6,61.1 93.9,60.5 95.1,59.8 L93.6,57.2 C92.5,57.8 91.4,58.3 90.2,58.8" id="Fill-21" fill-opacity="0.4" fill="#ACB9C2"></path>
                            <path d="M103.5,30 L100.5,30.1 C100.6,31.4 100.6,32.7 100.7,34.1 L103.7,34 C103.7,32.6 103.6,31.3 103.5,30" id="Fill-23" fill-opacity="0.4" fill="#ACB9C2"></path>
                            <path d="M103.5,25.1 C103.5,23.8 103.5,22.8 103.6,22.1 L100.6,21.8 C100.5,22.6 100.5,23.7 100.5,25.1 L100.5,26 L103.5,26 L103.5,25.1 Z" id="Fill-25" fill-opacity="0.4" fill="#ACB9C2"></path>
                            <path d="M101.2,38.2 C101.3,39.6 101.5,40.9 101.6,42.2 L101.6,42.5 L103.1,42 L104.6,42 L104.6,41.8 C104.4,40.6 104.3,39.2 104.2,37.9 L101.2,38.2 Z" id="Fill-27" fill-opacity="0.4" fill="#ACB9C2"></path>
                            <path d="M101.7,45.9 C101.6,47.1 101.3,48.3 100.9,49.4 L103.7,50.4 C104.2,49 104.5,47.6 104.7,46.2 L101.7,45.9 Z" id="Fill-29" fill-opacity="0.4" fill="#ACB9C2"></path>
                            <path d="M99.2,52.5 C98.5,53.5 97.6,54.4 96.7,55.1 L98.6,57.4 C99.7,56.5 100.7,55.4 101.6,54.2 L99.2,52.5 Z" id="Fill-31" fill-opacity="0.4" fill="#ACB9C2"></path>
                            <path d="M56.9,54.7 C50.4,63.6 37.9,65.6 29,59.1 C20.1,52.6 18.1,40.1 24.6,31.2 C31.1,22.3 43.6,20.3 52.5,26.8 C61.5,33.3 63.4,45.8 56.9,54.7 L56.9,54.7 Z M24.1,66.6 L23.8,66.4 L22.5,65.5 L26,60.6 C26.4,60.9 26.8,61.2 27.2,61.6 L27.6,61.9 L24.1,66.6 Z M24.1,71.6 L9.9,91 C9.6,91.4 9,91.5 8.5,91.2 L3.7,87.7 C3.3,87.4 3.2,86.8 3.5,86.3 L17.7,67 C17.9,66.7 18.2,66.6 18.5,66.6 C18.7,66.6 18.9,66.7 19.1,66.8 L23.9,70.3 C24.3,70.5 24.4,71.1 24.1,71.6 L24.1,71.6 Z M54.3,24.4 C50.4,21.5 45.6,20 40.8,20 C33.4,20 26.5,23.5 22.2,29.4 C15.7,38.3 16.4,50.4 23.8,58.5 L23.7,58.7 L20.1,63.7 L20,63.8 C19.5,63.6 19,63.5 18.5,63.5 C17.2,63.5 16,64.1 15.3,65.1 L1.2,84.5 C-0.1,86.3 0.3,88.8 2.1,90.1 L6.9,93.6 C7.6,94.1 8.4,94.4 9.3,94.4 C10.6,94.4 11.8,93.8 12.5,92.8 L26.6,73.4 C27.6,72 27.6,70 26.5,68.6 L26.6,68.5 L30.2,63.5 C33.5,65.2 37.1,66.1 40.8,66.1 C53.5,66.1 63.8,55.9 63.9,43.2 C63.9,35.7 60.3,28.7 54.3,24.4 L54.3,24.4 Z" id="Fill-33" fill-opacity="0.4" fill="#ACB9C2"></path>
                            <path d="M52.1,51.2 C49.5,54.8 45.2,57 40.8,57 C33.1,57 26.8,50.7 26.8,43 C26.8,40 27.7,37.1 29.5,34.7 C32.2,31.1 36.4,29 40.8,29 C48.5,29 54.8,35.3 54.8,43 C54.8,46 53.8,48.8 52.1,51.2 M57.6,40.3 C56.3,32 49.2,26 40.8,26 C35.4,26 30.2,28.6 27,33 C21.5,40.6 23.2,51.2 30.7,56.7 C33.6,58.8 37.1,59.9 40.7,60 C46.1,60 51.2,57.4 54.5,53 C57.2,49.4 58.3,44.8 57.6,40.3" id="Fill-35" fill-opacity="0.4" fill="#ACB9C2"></path>
                            <path d="M27,33 C30.2,28.6 35.3,26 40.8,26 C49.2,26 56.3,32.1 57.6,40.3 C58.3,44.8 57.2,49.3 54.5,53 C51.3,57.4 46.2,60 40.7,60 C37.1,60 33.6,58.9 30.7,56.7 C23.2,51.2 21.5,40.6 27,33 M56.9,54.7 L56.9,54.7 C63.4,45.8 61.5,33.3 52.5,26.8 C43.6,20.3 31.1,22.3 24.6,31.2 C22.6,33.9 21.4,36.9 21,40 C21,40.1 21,40.3 20.9,40.4 C20.9,40.8 20.8,41.2 20.8,41.6 L20.8,42.6 L20.8,43.4 C20.8,43.8 20.8,44.2 20.9,44.7 C20.9,44.9 20.9,45.1 21,45.4 C21.1,45.9 21.1,46.3 21.2,46.8 C21.2,47 21.3,47.2 21.3,47.3 C21.4,47.8 21.5,48.3 21.7,48.8 C21.7,48.9 21.8,49 21.8,49.2 C22,49.7 22.2,50.3 22.4,50.8 C22.4,50.9 22.4,50.9 22.5,51 C23.5,53.4 25,55.5 26.7,57.3 L26.8,57.4 C27.2,57.8 27.6,58.2 28.1,58.6 L28.4,58.9 C28.8,59.2 29.2,59.5 29.6,59.8 C29.8,59.9 30,60.1 30.2,60.2 C30.5,60.4 30.9,60.6 31.2,60.8 C31.5,61 31.7,61.1 32,61.2 C32.3,61.3 32.6,61.5 32.9,61.6 C33.3,61.8 33.7,61.9 34,62.1 C34.2,62.2 34.4,62.3 34.6,62.3 C35.1,62.5 35.6,62.6 36.1,62.7 C36.2,62.7 36.3,62.7 36.3,62.8 C43.8,64.2 52,61.4 56.9,54.7" id="Fill-38" fill="#FFFFFF"></path>
                            <path d="M9.9,91 L24,71.6 C24.3,71.2 24.2,70.6 23.8,70.3 L19,66.8 C18.8,66.7 18.6,66.6 18.4,66.6 C18.1,66.6 17.8,66.8 17.6,67 L3.5,86.4 C3.2,86.8 3.3,87.5 3.7,87.8 L8.5,91.3 C9,91.5 9.6,91.4 9.9,91" id="Fill-40" fill-opacity="0.15" fill="#ACB9C2"></path>
                            <path d="M76,38 L65,42 L63.8,42.5 L63.8,43 C63.8,47 62.8,50.7 61,54 L68,48.9 L76,43.9 L81,46.9 L86,41.9 L76,38 Z" id="Fill-42" fill-opacity="0.15" fill="#ACB9C2"></path>
                            <path d="M40.8,20 C45.7,20 50.4,21.5 54.3,24.4 C55.5,25.2 56.5,26.2 57.5,27.2 C57,25.4 56,23 56,23 L46,16 C46,16 47,12 46,12 L36,12 L33,15 L25,17 L23,21 L25.4,25.9 C29.6,22.1 35.1,20 40.8,20" id="Fill-44" fill-opacity="0.15" fill="#ACB9C2"></path>
                            <path d="M118.7,0 L118.3,0 L14.3,0 C13.2,0 12,0.6 12,1.7 L12,69.6 L15,65.5 L15,3 L117,3 L117,71 L27.3,71 C27.3,71.8 27.1,72.6 26.5,73.3 L26,74 L118.3,74 C119.4,74 120,72.8 120,71.7 L120,1.7 C120.1,0.9 119.5,0.1 118.7,0" id="Fill-46" fill-opacity="0.4" fill="#ACB9C2"></path>
                        </g>
                    </g>
                </g>
            </g>
        </g>
    </g>
</svg>